{"title":"Leon.1994.BRRip.480p.x264.AAC-VYTO [P2PDL]","uid":12191767,"size":483483269,"categoryP":"video","categoryS":"movies","magnet":"?xt=urn:btih:5f0f13625dee1f77a6100bcd2d7fb283c0157de5&amp;dn=Leon.1994.BRRip.480p.x264.AAC-VYTO+%5BP2PDL%5D&amp;tr=udp%3A%2F%2Ftracker.openbittorrent.com%3A80&amp;tr=udp%3A%2F%2Fopen.demonii.com%3A1337&amp;tr=udp%3A%2F%2Ftracker.coppersurfer.tk%3A6969&amp;tr=udp%3A%2F%2Fexodus.desync.com%3A6969","seeders":3,"leechers":0,"uploader":"ValidusVyto","files":7,"time":1438667140,"description":"____    ____ ____    ____ .___________.  ______   \n     /   /      /   / |           | /  __    \n    /   /      /   /  `---|  |----`|  |  |  | \n        /     _    _/       |  |     |  |  |  | \n       /        |  |         |  |     |  `--'  | \n    __/         |__|         |__|      ______/  \n                                                  \nPresenting Small Encodes with quality for years!\n                                                                                                   \n                                                                                                   \n\nLeon.1994.BRRip.480p.x264.AAC-VYTO\n\n\nAlternate title: Leon: The Professional\nGenre: Crime, Drama, Thriller &lt;a href=&quot;\nhttp://www.imdb.com/title/tt0110413/&quot; rel=&quot;nofollow&quot; target=&quot;_NEW&quot;&gt;\nhttp://www.imdb.com/title/tt0110413/&lt;/a&gt;\n\n\nGeneral\nFormat                         : MPEG-4\nFile size                      : 452 MiB\nDuration                       : 2h 12mn\nOverall bit rate               : 476 Kbps\n\nVideo\nFormat                         : AVC\nBit rate                       : 441 Kbps\nWidth                          : 720 pixels\nHeight                         : 304 pixels\nDisplay aspect ratio           : 2.35:1\nFrame rate mode                : Constant\nFrame rate                     : 23.976 fps\nBit depth                      : 8 bits\nStream size                    : 419 MiB (93%)\nWriting library                : x264 core 146 r2538 121396c\n\nAudio\nFormat                         : AAC\nBit rate mode                  : Variable\nBit rate                       : 32.0 Kbps\nChannel(s)                     : 2 channels\nChannel positions              : Front: L R \nSampling rate                  : 48.0 KHz\nStream size                    : 30.4 MiB (7%)\nLanguage                       : English\n\nSubtitle                       : Yes\nSource                     \t   : 720p.BluRay.DTS.x264-ESiR\t\t\t\n\n\nScreenshots:\n &lt;a href=&quot;\nhttp://ititli.com/nc&quot; rel=&quot;nofollow&quot; target=&quot;_NEW&quot;&gt;\nhttp://ititli.com/nc&lt;/a&gt; &lt;a href=&quot;\nhttp://ititli.com/ni&quot; rel=&quot;nofollow&quot; target=&quot;_NEW&quot;&gt;\nhttp://ititli.com/ni&lt;/a&gt; &lt;a href=&quot;\nhttp://ititli.com/np&quot; rel=&quot;nofollow&quot; target=&quot;_NEW&quot;&gt;\nhttp://ititli.com/np&lt;/a&gt; &lt;a href=&quot;\nhttp://ititli.com/nD&quot; rel=&quot;nofollow&quot; target=&quot;_NEW&quot;&gt;\nhttp://ititli.com/nD&lt;/a&gt; &lt;a href=&quot;\nhttp://ititli.com/na&quot; rel=&quot;nofollow&quot; target=&quot;_NEW&quot;&gt;\nhttp://ititli.com/na&lt;/a&gt; &lt;a href=&quot;\nhttp://ititli.com/nb&quot; rel=&quot;nofollow&quot; target=&quot;_NEW&quot;&gt;\nhttp://ititli.com/nb&lt;/a&gt; &lt;a href=&quot;\nhttp://ititli.com/nz&quot; rel=&quot;nofollow&quot; target=&quot;_NEW&quot;&gt;\nhttp://ititli.com/nz&lt;/a&gt; &lt;a href=&quot;\nhttp://ititli.com/nI&quot; rel=&quot;nofollow&quot; target=&quot;_NEW&quot;&gt;\nhttp://ititli.com/nI&lt;/a&gt; &lt;a href=&quot;\nhttp://ititli.com/nO&quot; rel=&quot;nofollow&quot; target=&quot;_NEW&quot;&gt;\nhttp://ititli.com/nO&lt;/a&gt; &lt;a href=&quot;\nhttp://ititli.com/w9&quot; rel=&quot;nofollow&quot; target=&quot;_NEW&quot;&gt;\nhttp://ititli.com/w9&lt;/a&gt; &lt;a href=&quot;\nhttp://ititli.com/wX&quot; rel=&quot;nofollow&quot; target=&quot;_NEW&quot;&gt;\nhttp://ititli.com/wX&lt;/a&gt; &lt;a href=&quot;\nhttp://ititli.com/wq&quot; rel=&quot;nofollow&quot; target=&quot;_NEW&quot;&gt;\nhttp://ititli.com/wq&lt;/a&gt;\n\n----------------------------------------------------------------------------------------------------\n\n\nEncoder Notes: Looking For Early Access To Anything You Can Provide DVDScr, R5, DVDR, BluRay, Direct\nAudio, Music Releases and Seedboxes. If You Got anything to offer please contact us.\n\nSupport us by donating BC - 1FgwdzPsd1y25Gea8wP1qni35uGCtmkRCD","torrent":{"xt":"urn:btih:5f0f13625dee1f77a6100bcd2d7fb283c0157de5","amp;dn":"Leon.1994.BRRip.480p.x264.AAC-VYTO+%5BP2PDL%5D","amp;tr":["udp%3A%2F%2Ftracker.openbittorrent.com%3A80","udp%3A%2F%2Fopen.demonii.com%3A1337","udp%3A%2F%2Ftracker.coppersurfer.tk%3A6969","udp%3A%2F%2Fexodus.desync.com%3A6969"],"infoHash":"5f0f13625dee1f77a6100bcd2d7fb283c0157de5","infoHashBuffer":{"type":"Buffer","data":[95,15,19,98,93,238,31,119,166,16,11,205,45,127,178,131,192,21,125,229]},"announce":[],"urlList":[]}}